<svg id="Layer_1" data-name="Layer 1" xmlns="http://www.w3.org/2000/svg" viewBox="0 0 673.46 74.64"><defs><style>.cls-1{fill:#fff;}</style></defs><title>YAY</title><path class="cls-1" d="M660.57,503.12h25.66c22.72,0,37.27,13.23,37.27,36S709,575.33,686.23,575.33H660.57Zm24.95,57.06c12.22,0,19.7-7.27,19.7-21.11s-7.78-20.8-19.7-20.8h-7.27v41.91Z" transform="translate(-660.57 -501.91)"/><path class="cls-1" d="M735,503.12h25.15c7.37,0,10.91.5,14,1.72,8.18,3.13,13.33,10.5,13.33,21,0,7.68-3.64,16.06-10.81,19.7v.2a41.29,41.29,0,0,1,2.73,4.34l14,25.25h-19.7L761,551h-8.28v24.34H735Zm25.35,32.72c5.66,0,9.19-3.13,9.19-8.88,0-3.64-.91-6.37-4.24-7.68a16.77,16.77,0,0,0-6.67-1h-5.95v17.57Z" transform="translate(-660.57 -501.91)"/><path class="cls-1" d="M818.13,503.12h18.59l24.54,72.21H843.08l-4.44-15.15H816.11l-4.34,15.15H793.59ZM834.5,546l-4-14c-1.32-4.54-2.93-12.42-2.93-12.42h-.21s-1.61,7.88-2.93,12.42l-4.14,14Z" transform="translate(-660.57 -501.91)"/><path class="cls-1" d="M901,501.91c9.8,0,20.1,2.83,27.78,9.59l-8.49,13.23a28.77,28.77,0,0,0-17.57-6.66c-15.15,0-21.31,9.69-21.31,20.4,0,13.74,9.49,21.92,20.7,21.92a24.2,24.2,0,0,0,14.65-5.26v-5.55h-10.2V534.53h25.85v40.8H917.62v-2c0-1.51.1-3,.1-3h-.2c-4.35,3.84-11.92,6.26-19,6.26-18.48,0-35.45-13.83-35.45-37.47C863.08,518.07,878.94,501.91,901,501.91Z" transform="translate(-660.57 -501.91)"/><path class="cls-1" d="M978.82,501.91c22.43,0,37.78,16.16,37.78,36.86,0,21.21-15.35,37.77-37.78,37.77S941.05,560,941.05,538.77C941.05,518.07,956.4,501.91,978.82,501.91Zm0,58.48c11.42,0,19.5-9.3,19.5-21.62,0-11.81-8.08-20.7-19.5-20.7s-19.49,8.89-19.49,20.7C959.33,551.09,967.41,560.39,978.82,560.39Z" transform="translate(-660.57 -501.91)"/><path class="cls-1" d="M1027.81,503.12h17.87l20,33.73a129.12,129.12,0,0,1,6.06,12.32h.2s-.8-7.77-.8-12.32V503.12h17.67v72.21H1071l-20.1-33.63a129.12,129.12,0,0,1-6.06-12.32h-.21s.81,7.78.81,12.32v33.63h-17.67Z" transform="translate(-660.57 -501.91)"/><path class="cls-1" d="M1107.09,503.12h19.19l10.51,30.5c1.61,4.65,3.63,11.92,3.63,11.92h.2s2-7.27,3.64-11.92l10.5-30.5H1174l5.86,72.21h-17.67l-2.23-32.52a108.58,108.58,0,0,1,0-12.12h-.2s-2.42,7.58-4,12.12l-7.57,20.91H1133l-7.58-20.91c-1.61-4.54-4-12.12-4-12.12h-.2a105.94,105.94,0,0,1,0,12.12l-2.22,32.52h-17.78Z" transform="translate(-660.57 -501.91)"/><path class="cls-1" d="M1226.27,501.91c9.7,0,20,3.23,27.07,10.2l-8.18,13.33c-4.65-4-11.62-7.37-18.08-7.37-14.44,0-20.4,10.2-20.4,20.6,0,10.71,6.46,21.72,20.4,21.72,7.17,0,14.24-3.94,19.19-8.89l9.09,12.93a39.4,39.4,0,0,1-29.09,12.11c-23.23,0-37.87-16-37.87-37.47C1188.4,518.07,1204,501.91,1226.27,501.91Z" transform="translate(-660.57 -501.91)"/><path class="cls-1" d="M1297.38,502A36.77,36.77,0,0,1,1334,539.18c0,20.6-16.26,37.36-36.66,37.36-20,0-36.26-16.76-36.26-37.36S1277.38,502,1297.38,502Zm0,64.13c14.34,0,25.34-11.92,25.34-27s-11-26.77-25.34-26.77c-14,0-24.85,11.82-24.85,26.77S1283.34,566.14,1297.38,566.14Zm-13.13-44.74h16.46c7.57,0,12.32,4.54,12.32,11.61a9.39,9.39,0,0,1-5.86,9v.21a6.89,6.89,0,0,1,1.31,2l6.37,12.22h-11.92l-5-11.92h-2.83v11.92h-10.9Zm13.63,15.86c2.63,0,4-1.52,4-4.25s-1.41-4.14-3.84-4.14h-2.93v8.39Z" transform="translate(-660.57 -501.91)"/></svg>